<svg width="2628" height="771" viewBox="0 0 2628 771" fill="none" xmlns="http://www.w3.org/2000/svg">
<mask id="path-1-inside-1" fill="white">
<path d="M467.402 558.997C466.797 581.949 471.94 594.633 482.831 597.049C487.066 598.257 492.512 598.861 499.167 598.861V420.38H469.217C446.83 504.335 407.199 554.165 350.324 569.869C334.593 574.097 317.047 576.211 297.685 576.211C220.844 576.211 172.742 532.723 153.381 445.748C146.12 411.32 142.49 368.738 142.49 318.003C143.095 152.507 197.247 69.4579 304.946 68.8539C361.821 68.8539 403.872 92.1078 431.099 138.616C443.805 160.963 454.998 189.653 464.679 224.685H496.445L493.722 46.204C477.99 46.204 468.612 51.036 465.587 60.7C464.377 66.7399 464.074 74.5919 464.679 84.2558C412.04 55.868 353.955 41.6741 290.425 41.6741C188.776 41.6741 111.027 77.0079 57.1774 147.675C19.0592 198.411 0 256.697 0 322.533C0 400.448 25.1096 465.982 75.3289 519.133C129.178 575.305 199.969 603.391 287.702 603.391C350.022 603.391 409.922 588.593 467.402 558.997Z"/>
<path d="M668.884 397.73C668.884 313.171 679.17 259.113 699.741 235.557C712.448 221.665 730.297 214.719 753.289 214.719C792.012 214.719 816.819 234.349 827.71 273.609C834.971 298.977 838.601 339.142 838.601 394.106C838.601 482.29 827.105 537.857 804.113 560.809C790.802 573.493 773.558 579.835 752.381 579.835C714.868 579.835 690.666 560.507 679.775 521.851C672.514 495.88 668.884 454.506 668.884 397.73ZM757.826 191.163C683.405 191.163 626.228 216.531 586.294 267.267C558.462 303.507 544.546 345.786 544.546 394.106C544.546 462.358 568.143 516.415 615.337 556.279C652.85 587.687 697.624 603.391 749.658 603.391C821.054 603.391 877.022 577.721 917.56 526.381C947.813 487.726 962.939 443.03 962.939 392.294C962.939 324.647 939.039 271.797 891.24 233.745C854.332 205.357 809.861 191.163 757.826 191.163Z"/>
<path d="M1141.73 397.73C1141.73 313.171 1152.02 259.113 1172.59 235.557C1185.3 221.665 1203.14 214.719 1226.14 214.719C1264.86 214.719 1289.67 234.349 1300.56 273.609C1307.82 298.977 1311.45 339.142 1311.45 394.106C1311.45 482.29 1299.95 537.857 1276.96 560.809C1263.65 573.493 1246.41 579.835 1225.23 579.835C1187.72 579.835 1163.51 560.507 1152.62 521.851C1145.36 495.88 1141.73 454.506 1141.73 397.73ZM1230.67 191.163C1156.25 191.163 1099.08 216.531 1059.14 267.267C1031.31 303.507 1017.39 345.786 1017.39 394.106C1017.39 462.358 1040.99 516.415 1088.18 556.279C1125.7 587.687 1170.47 603.391 1222.51 603.391C1293.9 603.391 1349.87 577.721 1390.41 526.381C1420.66 487.726 1435.79 443.03 1435.79 392.294C1435.79 324.647 1411.89 271.797 1364.09 233.745C1327.18 205.357 1282.71 191.163 1230.67 191.163Z"/>
<path d="M1708.06 570.775H1660.87V431.252L1689 404.072L1799.72 595.237L1950.38 594.331C1950.38 581.043 1946.75 573.493 1939.49 571.681C1936.47 571.077 1932.84 570.775 1928.6 570.775H1914.99L1768.87 327.062L1836.03 262.737C1857.2 242.805 1873.54 231.631 1885.04 229.215C1889.88 228.611 1894.72 228.309 1899.56 228.309C1912.87 228.309 1920.43 223.477 1922.25 213.813C1922.85 210.793 1923.15 207.773 1923.15 204.753H1769.77V228.309H1836.03L1660.87 394.106V5.43427H1476.63V28.9901H1545.6V523.663C1544.39 555.071 1521.4 570.775 1476.63 570.775V594.331H1729.84C1729.84 580.439 1725.91 572.889 1718.04 571.681C1715.02 571.077 1711.69 570.775 1708.06 570.775Z"/>
<path d="M2301.27 739.29C2290.38 739.29 2281.61 731.136 2274.95 714.828C2266.48 693.688 2258.92 680.401 2252.26 674.965C2244.4 669.529 2235.32 666.811 2225.04 666.811C2203.25 666.811 2189.34 676.173 2183.29 694.896C2182.08 699.728 2181.47 704.258 2181.47 708.486C2181.47 728.418 2193.57 744.726 2217.78 757.41C2234.72 766.47 2254.38 771 2276.77 771C2327.59 771 2369.64 741.706 2402.92 683.119C2415.63 661.979 2427.73 636.309 2439.22 606.109L2575.36 253.677C2585.65 237.369 2595.63 228.611 2605.31 227.403C2618.62 227.403 2625.88 222.873 2627.09 213.813C2627.7 210.793 2628 207.773 2628 204.753H2487.33V227.403H2555.39L2456.47 480.176L2346.65 227.403H2402.01V204.753H2188.73V227.403H2226.85L2403.83 613.357C2374.79 685.233 2346.95 726.002 2320.33 735.666C2313.68 738.082 2307.32 739.29 2301.27 739.29Z"/>
<path d="M2061.19 0.0444748C1996.71 0.95663 1960.39 54.2236 1960.39 112.099C1960.42 170.462 2001.12 212.111 2036.55 221.351C2056 244.84 2043.22 300.368 2029.5 332.363C2029.53 347.676 2029.53 582.267 2029.53 582.267L2029.6 582.289C2029.58 582.448 2029.55 582.639 2029.55 582.82C2029.55 597.166 2043.05 608.805 2059.67 608.827C2060.53 608.827 2063.75 608.805 2064.59 608.827C2081.26 608.805 2094.73 597.168 2094.73 582.82C2094.73 582.639 2094.68 582.47 2094.68 582.289L2094.73 582.31C2094.73 582.31 2094.73 347.645 2094.7 332.365C2080.96 300.328 2068.11 244.84 2087.56 221.353C2123.04 212.092 2163.71 170.442 2163.69 112.081C2163.69 54.2272 2127.33 0.960245 2062.87 0.0700247V0.0481007C2062.57 0.026165 2061.47 0.0480821 2061.22 0.00603885C2061.19 -0.0195527 2061.19 0.0444748 2061.19 0.0444748ZM2002.3 68.3044C2002.1 72.4027 2001.85 78.3289 2001.61 85.4233C2001.41 99.3542 2000.13 118.299 2003.16 135.122C2003.7 139.072 2005.3 143.533 2006.88 147.569C2008.38 151.731 2010.15 155.873 2012.05 159.844C2015.64 167.83 2019.55 175.22 2022.93 181.635C2026.38 187.965 2029.4 193.273 2031.79 196.842C2034.01 200.494 2036.1 202.066 2036.25 201.898C2036.3 202.088 2033.22 201.516 2029.28 198.754C2025.29 196.035 2020.17 191.785 2014.76 186.139C2009.27 180.532 2003.63 173.564 1998.31 165.494C1995.73 161.459 1993.29 157.211 1991 152.623C1988.81 147.909 1987.03 143.299 1985.85 137.884C1983.59 127.498 1983.95 117.517 1985.24 108.364C1986.42 99.1879 1988.68 90.8633 1991.17 83.9408C1993.58 76.9105 1996.41 71.2822 1998.75 67.4581C2001.04 63.5298 2002.89 61.6597 2002.89 61.6597C2002.89 61.6597 2002.47 64.1841 2002.3 68.3044Z"/>
</mask>
<path d="M467.402 558.997C466.797 581.949 471.94 594.633 482.831 597.049C487.066 598.257 492.512 598.861 499.167 598.861V420.38H469.217C446.83 504.335 407.199 554.165 350.324 569.869C334.593 574.097 317.047 576.211 297.685 576.211C220.844 576.211 172.742 532.723 153.381 445.748C146.12 411.32 142.49 368.738 142.49 318.003C143.095 152.507 197.247 69.4579 304.946 68.8539C361.821 68.8539 403.872 92.1078 431.099 138.616C443.805 160.963 454.998 189.653 464.679 224.685H496.445L493.722 46.204C477.99 46.204 468.612 51.036 465.587 60.7C464.377 66.7399 464.074 74.5919 464.679 84.2558C412.04 55.868 353.955 41.6741 290.425 41.6741C188.776 41.6741 111.027 77.0079 57.1774 147.675C19.0592 198.411 0 256.697 0 322.533C0 400.448 25.1096 465.982 75.3289 519.133C129.178 575.305 199.969 603.391 287.702 603.391C350.022 603.391 409.922 588.593 467.402 558.997Z" fill="black"/>
<path d="M668.884 397.73C668.884 313.171 679.17 259.113 699.741 235.557C712.448 221.665 730.297 214.719 753.289 214.719C792.012 214.719 816.819 234.349 827.71 273.609C834.971 298.977 838.601 339.142 838.601 394.106C838.601 482.29 827.105 537.857 804.113 560.809C790.802 573.493 773.558 579.835 752.381 579.835C714.868 579.835 690.666 560.507 679.775 521.851C672.514 495.88 668.884 454.506 668.884 397.73ZM757.826 191.163C683.405 191.163 626.228 216.531 586.294 267.267C558.462 303.507 544.546 345.786 544.546 394.106C544.546 462.358 568.143 516.415 615.337 556.279C652.85 587.687 697.624 603.391 749.658 603.391C821.054 603.391 877.022 577.721 917.56 526.381C947.813 487.726 962.939 443.03 962.939 392.294C962.939 324.647 939.039 271.797 891.24 233.745C854.332 205.357 809.861 191.163 757.826 191.163Z" fill="black"/>
<path d="M1141.73 397.73C1141.73 313.171 1152.02 259.113 1172.59 235.557C1185.3 221.665 1203.14 214.719 1226.14 214.719C1264.86 214.719 1289.67 234.349 1300.56 273.609C1307.82 298.977 1311.45 339.142 1311.45 394.106C1311.45 482.29 1299.95 537.857 1276.96 560.809C1263.65 573.493 1246.41 579.835 1225.23 579.835C1187.72 579.835 1163.51 560.507 1152.62 521.851C1145.36 495.88 1141.73 454.506 1141.73 397.73ZM1230.67 191.163C1156.25 191.163 1099.08 216.531 1059.14 267.267C1031.31 303.507 1017.39 345.786 1017.39 394.106C1017.39 462.358 1040.99 516.415 1088.18 556.279C1125.7 587.687 1170.47 603.391 1222.51 603.391C1293.9 603.391 1349.87 577.721 1390.41 526.381C1420.66 487.726 1435.79 443.03 1435.79 392.294C1435.79 324.647 1411.89 271.797 1364.09 233.745C1327.18 205.357 1282.71 191.163 1230.67 191.163Z" fill="black"/>
<path d="M1708.06 570.775H1660.87V431.252L1689 404.072L1799.72 595.237L1950.38 594.331C1950.38 581.043 1946.75 573.493 1939.49 571.681C1936.47 571.077 1932.84 570.775 1928.6 570.775H1914.99L1768.87 327.062L1836.03 262.737C1857.2 242.805 1873.54 231.631 1885.04 229.215C1889.88 228.611 1894.72 228.309 1899.56 228.309C1912.87 228.309 1920.43 223.477 1922.25 213.813C1922.85 210.793 1923.15 207.773 1923.15 204.753H1769.77V228.309H1836.03L1660.87 394.106V5.43427H1476.63V28.9901H1545.6V523.663C1544.39 555.071 1521.4 570.775 1476.63 570.775V594.331H1729.84C1729.84 580.439 1725.91 572.889 1718.04 571.681C1715.02 571.077 1711.69 570.775 1708.06 570.775Z" fill="black"/>
<path d="M2301.27 739.29C2290.38 739.29 2281.61 731.136 2274.95 714.828C2266.48 693.688 2258.92 680.401 2252.26 674.965C2244.4 669.529 2235.32 666.811 2225.04 666.811C2203.25 666.811 2189.34 676.173 2183.29 694.896C2182.08 699.728 2181.47 704.258 2181.47 708.486C2181.47 728.418 2193.57 744.726 2217.78 757.41C2234.72 766.47 2254.38 771 2276.77 771C2327.59 771 2369.64 741.706 2402.92 683.119C2415.63 661.979 2427.73 636.309 2439.22 606.109L2575.36 253.677C2585.65 237.369 2595.63 228.611 2605.31 227.403C2618.62 227.403 2625.88 222.873 2627.09 213.813C2627.7 210.793 2628 207.773 2628 204.753H2487.33V227.403H2555.39L2456.47 480.176L2346.65 227.403H2402.01V204.753H2188.73V227.403H2226.85L2403.83 613.357C2374.79 685.233 2346.95 726.002 2320.33 735.666C2313.68 738.082 2307.32 739.29 2301.27 739.29Z" fill="black"/>
<path d="M2061.19 0.0444748C1996.71 0.95663 1960.39 54.2236 1960.39 112.099C1960.42 170.462 2001.12 212.111 2036.55 221.351C2056 244.84 2043.22 300.368 2029.5 332.363C2029.53 347.676 2029.53 582.267 2029.53 582.267L2029.6 582.289C2029.58 582.448 2029.55 582.639 2029.55 582.82C2029.55 597.166 2043.05 608.805 2059.67 608.827C2060.53 608.827 2063.75 608.805 2064.59 608.827C2081.26 608.805 2094.73 597.168 2094.73 582.82C2094.73 582.639 2094.68 582.47 2094.68 582.289L2094.73 582.31C2094.73 582.31 2094.73 347.645 2094.7 332.365C2080.96 300.328 2068.11 244.84 2087.56 221.353C2123.04 212.092 2163.71 170.442 2163.69 112.081C2163.69 54.2272 2127.33 0.960245 2062.87 0.0700247V0.0481007C2062.57 0.026165 2061.47 0.0480821 2061.22 0.00603885C2061.19 -0.0195527 2061.19 0.0444748 2061.19 0.0444748ZM2002.3 68.3044C2002.1 72.4027 2001.85 78.3289 2001.61 85.4233C2001.41 99.3542 2000.13 118.299 2003.16 135.122C2003.7 139.072 2005.3 143.533 2006.88 147.569C2008.38 151.731 2010.15 155.873 2012.05 159.844C2015.64 167.83 2019.55 175.22 2022.93 181.635C2026.38 187.965 2029.4 193.273 2031.79 196.842C2034.01 200.494 2036.1 202.066 2036.25 201.898C2036.3 202.088 2033.22 201.516 2029.28 198.754C2025.29 196.035 2020.17 191.785 2014.76 186.139C2009.27 180.532 2003.63 173.564 1998.31 165.494C1995.73 161.459 1993.29 157.211 1991 152.623C1988.81 147.909 1987.03 143.299 1985.85 137.884C1983.59 127.498 1983.95 117.517 1985.24 108.364C1986.42 99.1879 1988.68 90.8633 1991.17 83.9408C1993.58 76.9105 1996.41 71.2822 1998.75 67.4581C2001.04 63.5298 2002.89 61.6597 2002.89 61.6597C2002.89 61.6597 2002.47 64.1841 2002.3 68.3044Z" fill="black"/>
<path d="M467.402 558.997C466.797 581.949 471.94 594.633 482.831 597.049C487.066 598.257 492.512 598.861 499.167 598.861V420.38H469.217C446.83 504.335 407.199 554.165 350.324 569.869C334.593 574.097 317.047 576.211 297.685 576.211C220.844 576.211 172.742 532.723 153.381 445.748C146.12 411.32 142.49 368.738 142.49 318.003C143.095 152.507 197.247 69.4579 304.946 68.8539C361.821 68.8539 403.872 92.1078 431.099 138.616C443.805 160.963 454.998 189.653 464.679 224.685H496.445L493.722 46.204C477.99 46.204 468.612 51.036 465.587 60.7C464.377 66.7399 464.074 74.5919 464.679 84.2558C412.04 55.868 353.955 41.6741 290.425 41.6741C188.776 41.6741 111.027 77.0079 57.1774 147.675C19.0592 198.411 0 256.697 0 322.533C0 400.448 25.1096 465.982 75.3289 519.133C129.178 575.305 199.969 603.391 287.702 603.391C350.022 603.391 409.922 588.593 467.402 558.997Z" stroke="black" stroke-width="2" mask="url(#path-1-inside-1)"/>
<path d="M668.884 397.73C668.884 313.171 679.17 259.113 699.741 235.557C712.448 221.665 730.297 214.719 753.289 214.719C792.012 214.719 816.819 234.349 827.71 273.609C834.971 298.977 838.601 339.142 838.601 394.106C838.601 482.29 827.105 537.857 804.113 560.809C790.802 573.493 773.558 579.835 752.381 579.835C714.868 579.835 690.666 560.507 679.775 521.851C672.514 495.88 668.884 454.506 668.884 397.73ZM757.826 191.163C683.405 191.163 626.228 216.531 586.294 267.267C558.462 303.507 544.546 345.786 544.546 394.106C544.546 462.358 568.143 516.415 615.337 556.279C652.85 587.687 697.624 603.391 749.658 603.391C821.054 603.391 877.022 577.721 917.56 526.381C947.813 487.726 962.939 443.03 962.939 392.294C962.939 324.647 939.039 271.797 891.24 233.745C854.332 205.357 809.861 191.163 757.826 191.163Z" stroke="black" stroke-width="2" mask="url(#path-1-inside-1)"/>
<path d="M1141.73 397.73C1141.73 313.171 1152.02 259.113 1172.59 235.557C1185.3 221.665 1203.14 214.719 1226.14 214.719C1264.86 214.719 1289.67 234.349 1300.56 273.609C1307.82 298.977 1311.45 339.142 1311.45 394.106C1311.45 482.29 1299.95 537.857 1276.96 560.809C1263.65 573.493 1246.41 579.835 1225.23 579.835C1187.72 579.835 1163.51 560.507 1152.62 521.851C1145.36 495.88 1141.73 454.506 1141.73 397.73ZM1230.67 191.163C1156.25 191.163 1099.08 216.531 1059.14 267.267C1031.31 303.507 1017.39 345.786 1017.39 394.106C1017.39 462.358 1040.99 516.415 1088.18 556.279C1125.7 587.687 1170.47 603.391 1222.51 603.391C1293.9 603.391 1349.87 577.721 1390.41 526.381C1420.66 487.726 1435.79 443.03 1435.79 392.294C1435.79 324.647 1411.89 271.797 1364.09 233.745C1327.18 205.357 1282.71 191.163 1230.67 191.163Z" stroke="black" stroke-width="2" mask="url(#path-1-inside-1)"/>
<path d="M1708.06 570.775H1660.87V431.252L1689 404.072L1799.72 595.237L1950.38 594.331C1950.38 581.043 1946.75 573.493 1939.49 571.681C1936.47 571.077 1932.84 570.775 1928.6 570.775H1914.99L1768.87 327.062L1836.03 262.737C1857.2 242.805 1873.54 231.631 1885.04 229.215C1889.88 228.611 1894.72 228.309 1899.56 228.309C1912.87 228.309 1920.43 223.477 1922.25 213.813C1922.85 210.793 1923.15 207.773 1923.15 204.753H1769.77V228.309H1836.03L1660.87 394.106V5.43427H1476.63V28.9901H1545.6V523.663C1544.39 555.071 1521.4 570.775 1476.63 570.775V594.331H1729.84C1729.84 580.439 1725.91 572.889 1718.04 571.681C1715.02 571.077 1711.69 570.775 1708.06 570.775Z" stroke="black" stroke-width="2" mask="url(#path-1-inside-1)"/>
<path d="M2301.27 739.29C2290.38 739.29 2281.61 731.136 2274.95 714.828C2266.48 693.688 2258.92 680.401 2252.26 674.965C2244.4 669.529 2235.32 666.811 2225.04 666.811C2203.25 666.811 2189.34 676.173 2183.29 694.896C2182.08 699.728 2181.47 704.258 2181.47 708.486C2181.47 728.418 2193.57 744.726 2217.78 757.41C2234.72 766.47 2254.38 771 2276.77 771C2327.59 771 2369.64 741.706 2402.92 683.119C2415.63 661.979 2427.73 636.309 2439.22 606.109L2575.36 253.677C2585.65 237.369 2595.63 228.611 2605.31 227.403C2618.62 227.403 2625.88 222.873 2627.09 213.813C2627.7 210.793 2628 207.773 2628 204.753H2487.33V227.403H2555.39L2456.47 480.176L2346.65 227.403H2402.01V204.753H2188.73V227.403H2226.85L2403.83 613.357C2374.79 685.233 2346.95 726.002 2320.33 735.666C2313.68 738.082 2307.32 739.29 2301.27 739.29Z" stroke="black" stroke-width="2" mask="url(#path-1-inside-1)"/>
<path d="M2061.19 0.0444748C1996.71 0.95663 1960.39 54.2236 1960.39 112.099C1960.42 170.462 2001.12 212.111 2036.55 221.351C2056 244.84 2043.22 300.368 2029.5 332.363C2029.53 347.676 2029.53 582.267 2029.53 582.267L2029.6 582.289C2029.58 582.448 2029.55 582.639 2029.55 582.82C2029.55 597.166 2043.05 608.805 2059.67 608.827C2060.53 608.827 2063.75 608.805 2064.59 608.827C2081.26 608.805 2094.73 597.168 2094.73 582.82C2094.73 582.639 2094.68 582.47 2094.68 582.289L2094.73 582.31C2094.73 582.31 2094.73 347.645 2094.7 332.365C2080.96 300.328 2068.11 244.84 2087.56 221.353C2123.04 212.092 2163.71 170.442 2163.69 112.081C2163.69 54.2272 2127.33 0.960245 2062.87 0.0700247V0.0481007C2062.57 0.026165 2061.47 0.0480821 2061.22 0.00603885C2061.19 -0.0195527 2061.19 0.0444748 2061.19 0.0444748ZM2002.3 68.3044C2002.1 72.4027 2001.85 78.3289 2001.61 85.4233C2001.41 99.3542 2000.13 118.299 2003.16 135.122C2003.7 139.072 2005.3 143.533 2006.88 147.569C2008.38 151.731 2010.15 155.873 2012.05 159.844C2015.64 167.83 2019.55 175.22 2022.93 181.635C2026.38 187.965 2029.4 193.273 2031.79 196.842C2034.01 200.494 2036.1 202.066 2036.25 201.898C2036.3 202.088 2033.22 201.516 2029.28 198.754C2025.29 196.035 2020.17 191.785 2014.76 186.139C2009.27 180.532 2003.63 173.564 1998.31 165.494C1995.73 161.459 1993.29 157.211 1991 152.623C1988.81 147.909 1987.03 143.299 1985.85 137.884C1983.59 127.498 1983.95 117.517 1985.24 108.364C1986.42 99.1879 1988.68 90.8633 1991.17 83.9408C1993.58 76.9105 1996.41 71.2822 1998.75 67.4581C2001.04 63.5298 2002.89 61.6597 2002.89 61.6597C2002.89 61.6597 2002.47 64.1841 2002.3 68.3044Z" stroke="black" stroke-width="2" mask="url(#path-1-inside-1)"/>
</svg>
